# xmcd CD database file
#
# Track frame offsets:
#	150
#	10424
#	23378
#	37010
#	48552
#	65413
#	77607
#	88399
#	99534
#	111382
#	142356
#	175579
#
# Disc length: 2671 seconds
#
# Revision: 0
# Processed by: cddbd v1.5.1PL2 Copyright (c) Steve Scherf et al.
# Submitted via: CDex 1.51
#
DISCID=a10a6d0c
DTITLE=Dave Brubeck - The Dave Brubeck Collection (1)
DYEAR=2005
DGENRE=Jazz
TTITLE0=I Hear A Rhapsody
TTITLE1=September In The Rain
TTITLE2=The Way You Look Tonight
TTITLE3=Back Home Again In Indiana
TTITLE4=Body And Soul
TTITLE5=What Is This Thing Called Love
TTITLE6=Let's Fall In Love
TTITLE7=Undecided
TTITLE8=Love Walked In
TTITLE9=How High The Moon
TTITLE10=Lullaby In Rhythm
TTITLE11=I'll Never Smile Again
EXTD=YEAR: 2005
EXTT0=
EXTT1=
EXTT2=
EXTT3=
EXTT4=
EXTT5=
EXTT6=
EXTT7=
EXTT8=
EXTT9=
EXTT10=
EXTT11=
PLAYORDER=
